<mxfile host="app.diagrams.net" modified="2021-04-26T14:43:33.852Z" agent="5.0 (Windows NT 10.0; Win64; x64) AppleWebKit/537.36 (KHTML, like Gecko) Chrome/90.0.4430.85 Safari/537.36" etag="8gFGI_0-hlwh1fNgC5QO" version="14.6.6" type="gitlab">
  <diagram id="t-59eCdXDRULg0o-6J7C" name="Page-1">
    <mxGraphModel dx="677" dy="336" grid="1" gridSize="10" guides="1" tooltips="1" connect="1" arrows="1" fold="1" page="1" pageScale="1" pageWidth="850" pageHeight="1100" math="0" shadow="0">
      <root>
        <mxCell id="0" />
        <mxCell id="1" parent="0" />
        <mxCell id="vLxqh-Sfl7kfRKvmK2bC-1" value="" style="endArrow=classic;html=1;" parent="1" edge="1">
          <mxGeometry width="50" height="50" relative="1" as="geometry">
            <mxPoint x="550.24" y="370" as="sourcePoint" />
            <mxPoint x="230.24" y="370" as="targetPoint" />
          </mxGeometry>
        </mxCell>
        <mxCell id="vLxqh-Sfl7kfRKvmK2bC-2" value="" style="endArrow=classic;html=1;" parent="1" edge="1">
          <mxGeometry width="50" height="50" relative="1" as="geometry">
            <mxPoint x="550.24" y="370" as="sourcePoint" />
            <mxPoint x="550.24" y="610" as="targetPoint" />
          </mxGeometry>
        </mxCell>
        <mxCell id="vLxqh-Sfl7kfRKvmK2bC-3" value="x axis" style="text;html=1;strokeColor=none;fillColor=none;align=center;verticalAlign=middle;whiteSpace=wrap;rounded=0;" parent="1" vertex="1">
          <mxGeometry x="190" y="360" width="50" height="20" as="geometry" />
        </mxCell>
        <mxCell id="vLxqh-Sfl7kfRKvmK2bC-4" value="y axis" style="text;html=1;strokeColor=none;fillColor=none;align=center;verticalAlign=middle;whiteSpace=wrap;rounded=0;" parent="1" vertex="1">
          <mxGeometry x="520" y="610" width="60" height="20" as="geometry" />
        </mxCell>
        <mxCell id="vLxqh-Sfl7kfRKvmK2bC-5" value="&lt;b&gt;&lt;font style=&quot;font-size: 10px&quot;&gt;WORLD FRAME&lt;/font&gt;&lt;/b&gt;" style="text;html=1;strokeColor=none;fillColor=none;align=center;verticalAlign=middle;whiteSpace=wrap;rounded=0;" parent="1" vertex="1">
          <mxGeometry x="230.72" y="350" width="320" height="20" as="geometry" />
        </mxCell>
        <mxCell id="vLxqh-Sfl7kfRKvmK2bC-6" value="" style="shape=actor;whiteSpace=wrap;html=1;" parent="1" vertex="1">
          <mxGeometry x="240" y="510" width="40" height="60" as="geometry" />
        </mxCell>
        <mxCell id="vLxqh-Sfl7kfRKvmK2bC-7" value="" style="verticalLabelPosition=bottom;verticalAlign=top;html=1;shape=mxgraph.basic.x" parent="1" vertex="1">
          <mxGeometry x="345.15" y="406.23" width="40" height="40" as="geometry" />
        </mxCell>
        <mxCell id="vLxqh-Sfl7kfRKvmK2bC-8" value="" style="ellipse;html=1;shape=startState;fillColor=#000000;strokeColor=#ff0000;" parent="1" vertex="1">
          <mxGeometry x="430" y="450" width="30" height="30" as="geometry" />
        </mxCell>
        <mxCell id="vLxqh-Sfl7kfRKvmK2bC-10" value="" style="endArrow=classic;html=1;entryX=0.65;entryY=0.5;entryDx=0;entryDy=0;entryPerimeter=0;" parent="1" source="vLxqh-Sfl7kfRKvmK2bC-8" target="vLxqh-Sfl7kfRKvmK2bC-7" edge="1">
          <mxGeometry width="50" height="50" relative="1" as="geometry">
            <mxPoint x="400" y="460" as="sourcePoint" />
            <mxPoint x="450" y="410" as="targetPoint" />
          </mxGeometry>
        </mxCell>
        <mxCell id="vLxqh-Sfl7kfRKvmK2bC-14" value="" style="endArrow=none;dashed=1;html=1;dashPattern=1 3;strokeWidth=2;" parent="1" edge="1">
          <mxGeometry width="50" height="50" relative="1" as="geometry">
            <mxPoint x="230" y="525" as="sourcePoint" />
            <mxPoint x="370" y="525" as="targetPoint" />
          </mxGeometry>
        </mxCell>
        <mxCell id="vLxqh-Sfl7kfRKvmK2bC-15" value="" style="endArrow=none;dashed=1;html=1;dashPattern=1 3;strokeWidth=2;" parent="1" edge="1">
          <mxGeometry width="50" height="50" relative="1" as="geometry">
            <mxPoint x="270" y="560" as="sourcePoint" />
            <mxPoint x="270" y="440" as="targetPoint" />
          </mxGeometry>
        </mxCell>
        <mxCell id="vLxqh-Sfl7kfRKvmK2bC-16" value="&lt;b&gt;Target point&lt;/b&gt;" style="text;html=1;strokeColor=none;fillColor=none;align=center;verticalAlign=middle;whiteSpace=wrap;rounded=0;" parent="1" vertex="1">
          <mxGeometry x="325.15" y="376.23" width="80" height="20" as="geometry" />
        </mxCell>
        <mxCell id="vLxqh-Sfl7kfRKvmK2bC-17" value="&lt;b&gt;View point&lt;/b&gt;" style="text;html=1;strokeColor=none;fillColor=none;align=center;verticalAlign=middle;whiteSpace=wrap;rounded=0;" parent="1" vertex="1">
          <mxGeometry x="225" y="570" width="70" height="20" as="geometry" />
        </mxCell>
        <mxCell id="vLxqh-Sfl7kfRKvmK2bC-18" value="&lt;b&gt;Reference point&lt;/b&gt;" style="text;html=1;strokeColor=none;fillColor=none;align=center;verticalAlign=middle;whiteSpace=wrap;rounded=0;" parent="1" vertex="1">
          <mxGeometry x="420" y="480" width="100" height="20" as="geometry" />
        </mxCell>
        <mxCell id="vLxqh-Sfl7kfRKvmK2bC-21" value="" style="endArrow=classic;html=1;" parent="1" edge="1">
          <mxGeometry width="50" height="50" relative="1" as="geometry">
            <mxPoint x="222" y="545" as="sourcePoint" />
            <mxPoint x="510" y="440" as="targetPoint" />
          </mxGeometry>
        </mxCell>
        <mxCell id="vLxqh-Sfl7kfRKvmK2bC-22" value="" style="endArrow=classic;html=1;" parent="1" edge="1">
          <mxGeometry width="50" height="50" relative="1" as="geometry">
            <mxPoint x="493" y="572" as="sourcePoint" />
            <mxPoint x="413" y="392" as="targetPoint" />
          </mxGeometry>
        </mxCell>
        <mxCell id="vLxqh-Sfl7kfRKvmK2bC-23" value="&lt;b&gt;&lt;font style=&quot;font-size: 10px&quot;&gt;REFERENCE FRAME&lt;/font&gt;&lt;/b&gt;" style="text;html=1;strokeColor=none;fillColor=none;align=center;verticalAlign=middle;whiteSpace=wrap;rounded=0;rotation=-20;" parent="1" vertex="1">
          <mxGeometry x="444.59" y="420.31" width="106.13" height="20" as="geometry" />
        </mxCell>
        <mxCell id="vLxqh-Sfl7kfRKvmK2bC-26" value="&lt;b&gt;Robot&lt;/b&gt;" style="text;html=1;strokeColor=none;fillColor=none;align=center;verticalAlign=middle;whiteSpace=wrap;rounded=0;" parent="1" vertex="1">
          <mxGeometry x="401.94" y="590" width="40" height="20" as="geometry" />
        </mxCell>
        <mxCell id="vLxqh-Sfl7kfRKvmK2bC-27" value="New x-axis" style="text;html=1;strokeColor=none;fillColor=none;align=center;verticalAlign=middle;whiteSpace=wrap;rounded=0;rotation=-20.2;" parent="1" vertex="1">
          <mxGeometry x="330" y="475.24" width="70.31" height="20" as="geometry" />
        </mxCell>
        <mxCell id="vLxqh-Sfl7kfRKvmK2bC-29" value="New y-axis" style="text;html=1;strokeColor=none;fillColor=none;align=center;verticalAlign=middle;whiteSpace=wrap;rounded=0;rotation=-20.2;" parent="1" vertex="1">
          <mxGeometry x="425" y="396.23" width="70.31" height="20" as="geometry" />
        </mxCell>
        <mxCell id="vLxqh-Sfl7kfRKvmK2bC-34" value="" style="shape=stencil(hVrZchs3EPwavqJwDjDPjvMfrrISqZJYLlnO8ffpLRZWRC+3+UaR0wtgjp4erC7l04/nL9+fLjn+eH97/ePpn5ev78+X8ssl55dvz09vL+/4dCmfL+XTb69vT7+/vf789vX69/cvm+X26a/Xv7cn/HvFxRDjBsrxv+sXKe5f/XoF/PnybQWMBeAePCv7dLDvXdnnxvZN2x+eX1zZF2P7WJR9rav9eLCfdrCPVdlbXu17KPL5Pa32Fpr0/6Dnt1DleZ3sa8h2bp9CpP3k4OK8sPfVPoU6lH1a82Egf8R5U8hrQo8eTD6f8me0mSEn9oXsczARrzSjM+079i/908ke8W3K3ld/9hJyOrfPoazxMp8ZcmLfV3+ayXhh9bLaIx/Efkroqz+brvca6nreZrJ+G8e35dDE/i2k1f/VpT+N/V9bcLGfHryv9sgfEV+f7DHti0t+SAfCLRaKIPSEDF0jXEqIKuNyGCuFln3N+wAwyOojeEFxUGphrIdG2FXTSJ1ZF3mb1ApIsjVN8U0RZ9jqeK2bZGEItyKxidjhhqIKc8/jHZDCEJ0sj1mIO5UGE/aIkq/2fdb2fftyKLUwRF4gzyKVTsiCWcqYjXoPWnDBvBWtbN0//KOYooRSyT6JAKBwKWJRMnvtk9g+7FUKNfzMz1dlsxGVk30U/mk1DN6PUnKtc7zi7M337T0kI3ulDAytvpN9Ff7cGkUhe5VvVmd4PuJbFVNbyEQSIan9dN5PCUn4B42U8qfKTtkPUqXJTtnRilcp1GeB3rcH35CUlgTUW+hrvoGAspAqvXOrSUVmRB9M00mL0U0r0QpgerHCiBwz8Loq4pGmWt2TIgVTKyBLV68iLYY4wyiTpXZAmxrgPgC9bq2zrEcIKNa2bmlryIJ5h7FIK3mOdWeAQYAiuRqim3KvNNnBASAvlS510RghE8CnzDgD2HoGNJSuV6BIQ6opwsZkQm5FC1KMBEAlMVinGDsD2EFtqukPAF85ppqsOEfmEKBL1gCAxF0d8xFnANKbALhwq0fm+apHKABIPqL1NnXoxJ2wpZm/Z4C8ttqme4nvrWkHlNkdzwAWGaDUIADE3tAD0kuJJ5HWZH/GYJ/IrSb7gx9mzU1yqDjkg+Ls81RnAFupsg053QFAGgmqJqtIZ74PsThvPO4DCst4AGQcCrvVkiQBvzdiqwnPD0LYilTCABAvmaZ7AChbIc6GPnSnLbUZmTMAiW3IOenWykQGPacGNgDYS0PeZAFg65Z6lF0UABpgIAEla7QZph2QpQQFgNpu15oVAAocVKO67gCAlABko2qKfpgKu2kvGY8ZALgKnPEVD4SpGoQBIDKGMK2KBGxeSd1c4knmM76lHQ9Yw/iaFgB5LWQsTqBklfb2zhevI2lu7UwzkL5KYG0X18aArui+M81AK2cV6c5CFwBTbu2s+cYDIuuHwO20cAYYkQFKVQJAigzyPekt+eGG2pSXBs/dkO9qfgAgHQBVqEoAsjFAcutgbh1ds8aYKvUGoAa/7a1MYoCapn0XCjtg6AIarDW2iUKv0AsDHmyJc8l1PQy+iQVAjQM+eNoFQLZd5/eD/qDH+bw7vgHIAnLucb6/QjsFDAbIijuMZR71wOE8Wm56X7nV+WZv0/sPAIcVTFGlcz0AoG4dNgC9Z8uaBHzW1w0gK3HiLB02+a7dSnPcJt81gAroQ42fAUjdb+L6AaAzQL392152VwaYWOHmdfoNYmUBfPh4PX99s3/7G7/Kx1fXfwMon/8H);fillColor=none;" parent="1" vertex="1">
          <mxGeometry x="1039.46511627907" y="2169.953488372093" width="183.8372093023256" height="99.30232558139535" as="geometry" />
        </mxCell>
        <mxCell id="vLxqh-Sfl7kfRKvmK2bC-36" value="" style="shape=stencil(jVbRUhsxDPyae9XYli1bz0D/IzOkTaYlYUIo8Pcoc+Nr5UsW3pzLyl6vtLImvnvZbZ63Uwov59Px9/Zt/3jeTXw/pbQ/7Lan/dlWEz9MfPfzeNr+Oh1fD4/z7+fNBXlZPR3/XnZ4n+MChXAJSuFj/hDD8unHHPBnf3ABIi5AKwVB+OYP0EwxQXzx+Eix3cbHvlvHNyXOCJ/V44UCI3yrHp+Iy218opQdvjYSwD+Rej41kwA+TM3rXwMVvY3Po54iVIA+ZYVPFAEfoebvWxoFwKeu8JkC4KMUmsNnhfpEk8MnLBdKoOBiJPWM8hcVx5TZBXCFEsVCwWvKDDWKQuqL2mSoiJJS9CdYHitQ1cpa/KWtEJGNrY6SPyE2qsgHMhrHZGgRBFheh1aU+hbXnZB64S+tghQ5xyTxB1ToZG6d71IYMAlWNsVrysTgwjlT8XUUuzeu4yslGfARdOoSxpQFYqBnMboy4NFLUKT76pv4Rjruj/iIyZGG+2aEzz3939NfWm/8SyuiBvJbTW6f39YJXsevLWMVCwSqMr4FEffqal3B38AkVeBie7uyT8EXfaKZpkPrsv4KRG3LNLAEWJkjSiuXme8EqKRGwFPK1k0BJU39gVkC8Mii1uA9pYKdZiONeEoFtwotqwD8aqoVgveCuQONLTaVsa8lsweai7SN3UVqJ3krYHjJbRKBKunoh5qoomcwrKZTs4hvAbb4N9rOU/H//41jsH2aR2h++AQ=);fillColor=none;" parent="1" vertex="1">
          <mxGeometry x="257.5" y="515.1111111111111" width="27.916666666666664" height="9.444444444444445" as="geometry" />
        </mxCell>
        <mxCell id="vLxqh-Sfl7kfRKvmK2bC-37" value="" style="shape=stencil(lVjLbhsxDPwaXwlJpB48p+l/BIjbGG3jwHFff18uDLkh1ztNb44zoxWHHJLrHd+9Pj287HclvZ5Pxy/7n4fH89OOP+xKOTw/7U+Hs33a8f2O7z4dT/vPp+P358fL3y8PC3L59O34Yznh14WXKKWFVNLvyxdV5zcfL/ivh2eP7xFfM8JndfhmJzDCM0d8g+dLiXgdCN/C+YUSPH80j2cqZRufKYf7CDVFeKke36gB/TMNn682SPs2vkT9e6YK9ClUA16ognh5qnfFd2oV4dmfP9J84ga+D49niBfKPr+jkQA9hUQ83uofxCvU/fmap8IbePV+UaYM8lWp+PyqndAQnr0+2qYjNvA13L9TB/pUal4fHdTgfXqIV0mAPpWUI34AfdpUb+JzSrBhNaopPqABA3RKNQY8QEH32CBMUAF4s2sQtEJBc6ISHsAwgJxXKcuwRWeOM8A8UEAOslAJJu5UQFPPlcTHMK51e5vQYls323fUdvvK92UmfotQfSENUwnkzQixE6V/XUlLJKDRl8eqlyplpJIRQrM2c7rE2Ye/k/+yNFz/t7USDCt4X0CssOcuhBEJBXlApxBvCCjSpSBXV0IVZwRZXUmAzYzQNRKQL9V86bMlll6BhN4iAVWc2TaYQDKUVctcTa4EG/+IwHFbEYay2jBKPg8i0MhGCLUkFc7jpRt6X0qDA2SZd76WpMN2Z/05rLAySEC7M0LYiQQXnxF0RAIaajZiStiqE5Z1zBDfEAa60ohzuVot4SeEGIwA/aBxMhuho8QpcYkEWBoad2ULuiNZNfZ4ywPjGFrIdMeO0yir+QGtU8t2s/K04ieE/YLHjGqLoH6as8wda5MQmjGehAvBB21LDRxsafWWWfBbxS1Gnm+G72Us4xFtMTcY9q72f7eyZavC5W3FsFmJdrE1ocH3ixsEnr56dxBwSNwgxI0bbRn2If4WYV9dfsfg+z8=);fillColor=none;" parent="1" vertex="1">
          <mxGeometry x="255.8130841121495" y="518.7943925233644" width="29.875389408099686" height="6.098130841121495" as="geometry" />
        </mxCell>
        <mxCell id="vLxqh-Sfl7kfRKvmK2bC-38" value="&lt;span style=&quot;color: rgba(0 , 0 , 0 , 0) ; font-family: monospace ; font-size: 0px&quot;&gt;%3CmxGraphModel%3E%3Croot%3E%3CmxCell%20id%3D%220%22%2F%3E%3CmxCell%20id%3D%221%22%20parent%3D%220%22%2F%3E%3CmxCell%20id%3D%222%22%20value%3D%22New%20x-axis%22%20style%3D%22text%3Bhtml%3D1%3BstrokeColor%3Dnone%3BfillColor%3Dnone%3Balign%3Dcenter%3BverticalAlign%3Dmiddle%3BwhiteSpace%3Dwrap%3Brounded%3D0%3Brotation%3D-20.2%3B%22%20vertex%3D%221%22%20parent%3D%221%22%3E%3CmxGeometry%20x%3D%22330%22%20y%3D%22475.24%22%20width%3D%2270.31%22%20height%3D%2220%22%20as%3D%22geometry%22%2F%3E%3C%2FmxCell%3E%3C%2Froot%3E%3C%2FmxGraphModel%3E&lt;/span&gt;" style="text;html=1;strokeColor=none;fillColor=none;align=center;verticalAlign=middle;whiteSpace=wrap;rounded=0;" parent="1" vertex="1">
          <mxGeometry x="270" y="495.24" width="20" height="20" as="geometry" />
        </mxCell>
        <mxCell id="vLxqh-Sfl7kfRKvmK2bC-39" value="" style="shape=image;html=1;verticalAlign=top;verticalLabelPosition=bottom;labelBackgroundColor=#ffffff;imageAspect=0;aspect=fixed;image=https://cdn0.iconfinder.com/data/icons/star-wars/512/r2d2-128.png" parent="1" vertex="1">
          <mxGeometry x="400" y="546.13" width="43.87" height="43.87" as="geometry" />
        </mxCell>
        <mxCell id="VmwIsEQacejDmA9oR7KZ-6" value="" style="shape=stencil(lZlJchsxDEVPoy2KBAmCXGe4h6vixK4kdspxptsHisJWE2x9tXayzKfmAHx8sA/pzfeHu2/3Bw7fX1+eP9//evzw+nBIbw/Mj08P9y+Pr/bpkN4d0puPzy/3n16efzx9OP397e448vjp6/PP4y/8PnFNqeUjxeHP6ZsUKKR/37w/AV8en9ZApZI8kAoAGsU6AkwhQyDHERAKggH3hEKCp6Ru0bVvwyWg6gDkSFIvAzHYLoaRyJTAIrYIpRhvI2xheKPcusWOAjzCAB4PWzIFhtGRZQQKDidbYxmBSlEBID3aOlBCD7BtIFEad6nYolF0BKrjGkqC0VFtxuO2FoHRUe3fYzgVpdAAwNTaCFRicA41+BwqlobhMqCmA8UDBQFCqh5o4OA09T3pgIYeXdtApNRuAWwCHDyAFl0K1erXoGBbS6acbtnWEkkdUOFJi/2eCz6bJFi05ZePJenbsA0kLwIW3gEcnARqLoECCZAZ060ybqsoCUigozROMsNgStmm5J4Q+lFuAqbv/2VrJa4KpnQuOSv9RvlgRY3dE+zsgbZy8wmUGiUQfKw+gZJSQk8Qf3C2qgrWwHkqpBkDqc94BSD1ZvZynxIVBESKyQMZ7FJcVGgFMMi4aIameQCtIWqPzRWADE0UX1CuAXmyTFcAC758ExB65OzcpUppmhFK6ULqQi9DDyfdJeyMPIuaySPCSJ0CtVADshp7kK0cIkrOSSNNogIQJFPQSS2QzFvlG/MmJ6pg/2druAThzvHaLce+8bJ8s3M8kwDtmtYr0gvjhfFOTK3kKMr6XsF21jT2vtaKpgCRSF5JrYwjS5inGnvFifj8MnuVYf5W56UKLJgx9vDtgFlKRoA9f5xRxcpuqqhjClSFvtyEOowi13COcfCtQuPuci9VJxcVx24DRcVUMFvpzmQbKL7+WceUUP2bfLn1ZBBoPa86sOoTt0M1dCXcTXDfldWkUONpYs7VAxGEt6kzR79PjPza1IM13D2f9Xl11kghjwLtAOwITaGdsbBWFHl/k+jsAGwhTaPZAQF6/zy153VxP9tA8yl0JUmtDDi/Zs1uRv3LVDkrdhYyleYae7N7CahOKxvsLmS5H1gAhdckBkSnrhnmg0x2RBlGq8z1p0FlOpbXqQBldHAzkGBobAABn/QEWI1GJnUDSN027QTycnG3Fyi9Yd8LJFinNwAL+JsOLim8fdoApN947QUYZ9wEnHvXvYB2ed4LWMW4aZfM0RWcQA4wO4GuqwxQV0exgzOgjhXI2jjUMshSDRaAYT8vk6mM2LQa4K6tbc1oRtl3efjeRmbX2u3N9njxt5IZx5F4Z2KShOZjEjceAV8b78xVhKbY9CqrG89ovbUHcR8fcFmYLv9CP5DtJiD4e4Kl+l66jXTzxz6vWA6UW34/+6t2i0/0++Kv8fAtXlEq4vYfNZHzhTDD89JAZSzLCb7tUPYdCX47otN1GW5qdWovcH6pdEN6zl9kmq0HdP0OfvdiNsjNv7m7OPtwftN4ekm5/p9/K2lfnd5opnd/AQ==);fillColor=none;rotation=30;" parent="1" vertex="1">
          <mxGeometry x="275.29999999999995" y="500.26" width="9.4" height="9.95" as="geometry" />
        </mxCell>
        <mxCell id="NdfYn4-zkdI4PGduCLC4-3" value="" style="endArrow=classic;html=1;" edge="1" parent="1">
          <mxGeometry width="50" height="50" relative="1" as="geometry">
            <mxPoint x="410" y="490" as="sourcePoint" />
            <mxPoint x="460" y="440" as="targetPoint" />
          </mxGeometry>
        </mxCell>
        <mxCell id="NdfYn4-zkdI4PGduCLC4-4" value="" style="endArrow=classic;html=1;" edge="1" parent="1">
          <mxGeometry width="50" height="50" relative="1" as="geometry">
            <mxPoint x="410" y="490" as="sourcePoint" />
            <mxPoint x="460" y="440" as="targetPoint" />
          </mxGeometry>
        </mxCell>
        <mxCell id="NdfYn4-zkdI4PGduCLC4-5" value="" style="endArrow=classic;html=1;" edge="1" parent="1">
          <mxGeometry width="50" height="50" relative="1" as="geometry">
            <mxPoint x="410" y="490" as="sourcePoint" />
            <mxPoint x="460" y="440" as="targetPoint" />
          </mxGeometry>
        </mxCell>
      </root>
    </mxGraphModel>
  </diagram>
</mxfile>
